<svg width="89" height="89" viewBox="0 0 89 89" fill="none" xmlns="http://www.w3.org/2000/svg">
<path d="M87.5 44.4857C87.5 68.2255 68.2487 87.4713 44.5 87.4713C20.7513 87.4713 1.5 68.2255 1.5 44.4857C1.5 20.7458 20.7513 1.5 44.5 1.5C68.2487 1.5 87.5 20.7458 87.5 44.4857Z" stroke="white" stroke-width="3"/>
<path d="M64.0607 46.047C64.6464 45.4612 64.6464 44.5115 64.0607 43.9257L54.5147 34.3797C53.9289 33.7939 52.9792 33.7939 52.3934 34.3797C51.8076 34.9655 51.8076 35.9153 52.3934 36.501L60.8787 44.9863L52.3934 53.4716C51.8076 54.0574 51.8076 55.0071 52.3934 55.5929C52.9792 56.1787 53.9289 56.1787 54.5147 55.5929L64.0607 46.047ZM26 46.4863H63V43.4863H26V46.4863Z" fill="white"/>
</svg>
