<svg width="1260" height="95" viewBox="0 0 1260 95" fill="none" xmlns="http://www.w3.org/2000/svg">
<g clip-path="url(#clip0_967_6278)">
<path d="M63.8608 93.1259L57.3025 71.3198H26.7248L20.1666 93.1259H0L30.1679 1.55664H54.8432L84.6012 93.1259H63.8608ZM42.2186 19.6738H41.5628L31.4795 54.4324H52.4658L42.2186 19.6738Z" fill="white"/>
<path d="M97.3076 1.55664H141.822C156.906 1.55664 166.005 10.9021 166.005 25.0843C166.005 39.2665 158.299 44.3491 148.954 44.759V45.5788C157.643 45.5788 169.53 51.3172 169.53 67.1389C169.53 81.567 159.447 93.2899 145.92 93.2899H97.3896V1.55664H97.3076ZM117.31 39.1025H137.149C142.395 39.1025 145.511 35.9874 145.511 30.7408V26.8058C145.511 21.5592 142.395 18.4441 137.149 18.4441H117.31V39.1845V39.1025ZM117.31 76.4024H140.264C145.511 76.4024 148.79 73.3693 148.79 68.1227V63.6959C148.79 58.4493 145.511 55.4161 140.264 55.4161H117.31V76.4024Z" fill="white"/>
<path d="M181.253 47.3832C181.253 16.3136 197.239 0 221.504 0C245.77 0 261.755 16.2316 261.755 47.3832C261.755 78.5348 245.77 94.7664 221.504 94.7664C197.239 94.7664 181.253 78.5348 181.253 47.3832ZM240.687 54.1874V40.5791C240.687 25.987 233.473 17.7072 221.504 17.7072C209.535 17.7072 202.321 25.987 202.321 40.5791V54.1874C202.321 68.7794 209.535 77.0592 221.504 77.0592C233.473 77.0592 240.687 68.7794 240.687 54.1874Z" fill="white"/>
<path d="M297.334 1.55664V57.7115C297.334 70.582 302.089 76.9763 313.894 76.9763C325.698 76.9763 330.453 70.582 330.453 57.7115V1.55664H349.882V55.5801C349.882 82.6328 340.208 94.6835 313.894 94.6835C287.579 94.6835 277.905 82.6328 277.905 55.5801V1.55664H297.334Z" fill="white"/>
<path d="M407.676 19.2639V93.1259H387.755V19.2639H362.916V1.55664H432.433V19.2639H407.676Z" fill="white"/>
<path d="M473.504 93.1259V77.2222H485.309V17.4603H473.504V1.55664H517.035V17.4603H505.23V77.3042H517.035V93.2079H473.504V93.1259Z" fill="white"/>
<path d="M602.209 33.0361H601.799L595.077 46.3985L577.206 78.7798L559.745 46.4805L552.777 32.0524H552.367V93.044H533.594V1.55664H554.744L577.206 44.4311H577.452L599.668 1.55664H620.9V93.1259H602.127V33.0361H602.209Z" fill="white"/>
<path d="M709.6 33.0361H709.19L702.468 46.3985L684.597 78.7798L667.136 46.4805L660.168 32.0524H659.758V93.044H640.985V1.55664H662.135L684.597 44.4311H684.843L707.059 1.55664H728.291V93.1259H709.518V33.0361H709.6Z" fill="white"/>
<path d="M748.54 93.1259V1.55664H810.843V19.2639H768.461V38.0368H804.777V55.662H768.461V75.5007H810.843V93.2079H748.54V93.1259Z" fill="white"/>
<path d="M848.143 93.1259H828.223V1.55664H871.671C888.558 1.55664 899.379 13.3615 899.379 30.8227C899.379 43.1194 893.887 53.0387 882.738 57.2196L900.691 93.2079H878.475L862.489 59.597H848.225V93.2079L848.143 93.1259ZM869.13 42.7915C875.032 42.7915 878.721 39.6764 878.721 33.7739V28.0355C878.721 22.1331 875.032 19.0179 869.13 19.0179H848.143V42.8735H869.13V42.7915Z" fill="white"/>
<path d="M911.43 79.9285L924.546 66.6481C930.695 73.6162 938.565 77.1412 947.5 77.1412C957.174 77.1412 961.928 72.7964 961.928 66.1562C961.928 61.1555 959.797 57.4665 951.271 56.3189L942.254 55.1712C922.989 52.7118 914.135 43.2024 914.135 27.8725C914.135 11.477 927.006 0.0820312 948.484 0.0820312C962.256 0.0820312 972.749 4.67279 980.209 12.9526L966.929 26.315C962.584 21.2323 956.682 17.6253 947.254 17.6253C938.319 17.6253 933.974 21.0684 933.974 26.5609C933.974 32.8732 937.253 35.2505 944.877 36.3982L953.895 37.8738C972.668 40.907 981.685 49.2688 981.685 65.0085C981.685 82.6338 968.815 94.7665 946.025 94.7665C930.039 94.7665 919.136 88.6181 911.266 79.9285H911.43Z" fill="white"/>
<path d="M994.884 47.3832C994.884 16.3136 1010.87 0 1035.13 0C1059.4 0 1075.39 16.2316 1075.39 47.3832C1075.39 78.5348 1059.4 94.7664 1035.13 94.7664C1010.87 94.7664 994.884 78.5348 994.884 47.3832ZM1054.32 54.1874V40.5791C1054.32 25.987 1047.1 17.7072 1035.13 17.7072C1023.17 17.7072 1015.95 25.987 1015.95 40.5791V54.1874C1015.95 68.7794 1023.17 77.0592 1035.13 77.0592C1047.1 77.0592 1054.32 68.7794 1054.32 54.1874Z" fill="white"/>
<path d="M1085.47 84.1087V81.4854C1085.47 75.419 1089.16 70.9922 1097.03 70.9922C1104.9 70.9922 1108.59 75.419 1108.59 81.4854V84.1087C1108.59 90.175 1104.9 94.6018 1097.03 94.6018C1089.16 94.6018 1085.47 90.175 1085.47 84.1087Z" fill="white"/>
<path d="M1186.55 93.1259L1179.99 71.3198H1149.41L1142.85 93.1259H1122.69L1152.85 1.55664H1177.53L1207.29 93.1259H1186.55ZM1164.91 19.6738H1164.25L1154.17 54.4324H1175.15L1164.91 19.6738Z" fill="white"/>
<path d="M1216.39 93.1259V77.2222H1228.19V17.4603H1216.39V1.55664H1259.92V17.4603H1248.11V77.3042H1259.92V93.2079H1216.39V93.1259Z" fill="white"/>
</g>
<defs>
<clipPath id="clip0_967_6278">
<rect width="1260" height="94.7664" fill="white"/>
</clipPath>
</defs>
</svg>
