<svg width="1260" height="48" viewBox="0 0 1260 48" fill="none" xmlns="http://www.w3.org/2000/svg">
<g clip-path="url(#clip0_967_6213)">
<path d="M1085.47 37.1087V34.4854C1085.47 28.419 1089.16 23.9922 1097.03 23.9922C1104.9 23.9922 1108.59 28.419 1108.59 34.4854V37.1087C1108.59 43.175 1104.9 47.6018 1097.03 47.6018C1089.16 47.6018 1085.47 43.175 1085.47 37.1087Z" fill="white"/>
<path fill-rule="evenodd" clip-rule="evenodd" d="M15.1964 0L0 46.1259H20.1666L26.7248 24.3198H57.3025L63.8608 46.1259H84.6012L69.6113 0H50.2747L52.4658 7.43237H31.4795L33.6356 0H15.1964Z" fill="white"/>
<path fill-rule="evenodd" clip-rule="evenodd" d="M97.3897 0V46.2899H145.921C159.447 46.2899 169.53 34.5671 169.53 20.1389C169.53 8.71179 163.33 2.54445 156.611 0H97.3897ZM140.264 29.4024H117.31V8.41611H140.264C145.511 8.41611 148.79 11.4493 148.79 16.6959V21.1227C148.79 26.3693 145.511 29.4024 140.264 29.4024Z" fill="white"/>
<path fill-rule="evenodd" clip-rule="evenodd" d="M181.254 0C181.253 0.127489 181.253 0.255228 181.253 0.383218C181.253 31.5348 197.239 47.7664 221.504 47.7664C245.77 47.7664 261.755 31.5348 261.755 0.383218C261.755 0.255227 261.755 0.127487 261.754 0H240.687V7.18738C240.687 21.7794 233.473 30.0592 221.504 30.0592C209.535 30.0592 202.321 21.7794 202.321 7.18738V0H181.254Z" fill="white"/>
<path fill-rule="evenodd" clip-rule="evenodd" d="M277.905 0V8.58006C277.905 35.6328 287.579 47.6835 313.894 47.6835C340.208 47.6835 349.882 35.6328 349.882 8.58006V0H330.453V10.7115C330.453 23.582 325.698 29.9763 313.894 29.9763C302.089 29.9763 297.334 23.582 297.334 10.7115V0H277.905Z" fill="white"/>
<path fill-rule="evenodd" clip-rule="evenodd" d="M387.755 0V46.1259H407.676V0H387.755Z" fill="white"/>
<path fill-rule="evenodd" clip-rule="evenodd" d="M828.223 0V46.1259H848.143L848.225 46.2079V12.597H862.489L878.475 46.2079H900.691L882.738 10.2196C888.339 8.11927 892.512 4.57069 895.279 0H828.223Z" fill="white"/>
<path fill-rule="evenodd" clip-rule="evenodd" d="M748.54 0V46.1259V46.2079H810.843V28.5007H768.461V8.66204H804.777V0H748.54Z" fill="white"/>
<path fill-rule="evenodd" clip-rule="evenodd" d="M640.985 0V46.044H659.758V0H640.985ZM667.417 0L684.597 31.7798L702.136 0H667.417ZM709.518 0V46.1259H728.291V0H709.518Z" fill="white"/>
<path fill-rule="evenodd" clip-rule="evenodd" d="M533.594 0V46.044H552.367V0H533.594ZM560.026 0L577.206 31.7798L594.745 0H560.026ZM602.127 0V46.1259H620.9V0H602.127Z" fill="white"/>
<path fill-rule="evenodd" clip-rule="evenodd" d="M485.309 0V30.2222H473.504V46.1259V46.2079H517.035V30.3042H505.23V0H485.309Z" fill="white"/>
<path fill-rule="evenodd" clip-rule="evenodd" d="M1228.19 0V30.2222H1216.39V46.1259V46.2079H1259.92V30.3042H1248.11V0H1228.19Z" fill="white"/>
<path fill-rule="evenodd" clip-rule="evenodd" d="M1137.88 0L1122.69 46.1259H1142.85L1149.41 24.3198H1179.99L1186.55 46.1259H1207.29L1192.3 0H1172.96L1175.15 7.43237H1154.17L1156.32 0H1137.88Z" fill="white"/>
<path fill-rule="evenodd" clip-rule="evenodd" d="M994.885 0C994.884 0.127489 994.884 0.255228 994.884 0.383218C994.884 31.5348 1010.87 47.7664 1035.13 47.7664C1059.4 47.7664 1075.39 31.5348 1075.39 0.383218C1075.39 0.255227 1075.39 0.127487 1075.39 0H1054.32V7.18738C1054.32 21.7794 1047.1 30.0592 1035.13 30.0592C1023.17 30.0592 1015.95 21.7794 1015.95 7.18738V0H994.885Z" fill="white"/>
<path fill-rule="evenodd" clip-rule="evenodd" d="M921.653 0C926.273 4.23262 933.084 7.00055 942.254 8.17117L951.271 9.31886C959.797 10.4665 961.928 14.1555 961.928 19.1562C961.928 25.7964 957.174 30.1412 947.5 30.1412C938.565 30.1412 930.695 26.6162 924.546 19.6481L911.43 32.9285H911.266C919.136 41.6181 930.039 47.7665 946.025 47.7665C968.815 47.7665 981.685 35.6338 981.685 18.0085C981.685 10.3284 979.538 4.40495 975.158 0H921.653Z" fill="white"/>
</g>
<defs>
<clipPath id="clip0_967_6213">
<rect width="1260" height="48" fill="white"/>
</clipPath>
</defs>
</svg>
