<svg width="1260" height="48" viewBox="0 0 1260 48" fill="none" xmlns="http://www.w3.org/2000/svg">
<g clip-path="url(#clip0_967_6260)">
<path fill-rule="evenodd" clip-rule="evenodd" d="M748.54 48H804.777V38.0368H768.461V19.2639H810.843V1.55664H748.54V48Z" fill="white"/>
<path fill-rule="evenodd" clip-rule="evenodd" d="M709.19 33.0361H709.518V48H728.291V1.55664H707.059L684.843 44.4311H684.597L662.135 1.55664H640.985V48H659.758V32.0524H660.168L667.136 46.4805L667.957 48H701.584L702.468 46.3985L709.19 33.0361Z" fill="white"/>
<path fill-rule="evenodd" clip-rule="evenodd" d="M601.799 33.0361H602.127V48H620.9V1.55664H599.668L577.452 44.4311H577.206L554.744 1.55664H533.594V48H552.367V32.0524H552.777L559.745 46.4805L560.566 48H594.193L595.077 46.3985L601.799 33.0361Z" fill="white"/>
<path fill-rule="evenodd" clip-rule="evenodd" d="M485.309 48H505.23V17.4603H517.035V1.55664H473.504V17.4603H485.309V48Z" fill="white"/>
<path fill-rule="evenodd" clip-rule="evenodd" d="M407.676 48V19.2639H432.433V1.55664H362.916V19.2639H387.755V48H407.676Z" fill="white"/>
<path fill-rule="evenodd" clip-rule="evenodd" d="M297.334 48V1.55664H277.905V48H297.334ZM330.453 48H349.882V1.55664H330.453V48Z" fill="white"/>
<path fill-rule="evenodd" clip-rule="evenodd" d="M221.504 0C197.239 0 181.253 16.3136 181.253 47.3832C181.253 47.5895 181.254 47.7951 181.255 48H202.321V40.5791C202.321 25.987 209.535 17.7072 221.504 17.7072C233.473 17.7072 240.687 25.987 240.687 40.5791V48H261.753C261.755 47.7951 261.755 47.5895 261.755 47.3832C261.755 16.2316 245.77 0 221.504 0Z" fill="white"/>
<path fill-rule="evenodd" clip-rule="evenodd" d="M141.822 1.55664H97.3897V48H158.854C155.607 46.3188 152.074 45.5788 148.954 45.5788V44.759C158.299 44.3491 166.005 39.2665 166.005 25.0843C166.005 10.9021 156.906 1.55664 141.822 1.55664ZM137.149 39.1025H117.31V18.4441H137.149C142.396 18.4441 145.511 21.5592 145.511 26.8058V30.7408C145.511 35.9874 142.396 39.1025 137.149 39.1025Z" fill="white"/>
<path fill-rule="evenodd" clip-rule="evenodd" d="M14.8667 48L30.1676 1.55664H54.843L69.936 48H50.5693L42.2184 19.6738H41.5626L33.3453 48H14.8667Z" fill="white"/>
<path fill-rule="evenodd" clip-rule="evenodd" d="M922.819 48H976.091C971.542 42.7991 964.183 39.5362 953.895 37.8738L944.877 36.3982C937.253 35.2505 933.974 32.8732 933.974 26.5609C933.974 21.0684 938.319 17.6253 947.254 17.6253C956.682 17.6253 962.584 21.2323 966.929 26.315L980.209 12.9526C972.749 4.67279 962.256 0.0820312 948.484 0.0820312C927.006 0.0820312 914.135 11.477 914.135 27.8725C914.135 36.4968 916.937 43.279 922.819 48Z" fill="white"/>
<path fill-rule="evenodd" clip-rule="evenodd" d="M894.64 48H828.223V1.55664H871.671C888.558 1.55664 899.379 13.3615 899.379 30.8227C899.379 37.4001 897.808 43.2973 894.64 48ZM878.721 33.7739C878.721 39.6763 875.032 42.7915 869.13 42.7915V42.8735H848.143V19.0179H869.13C875.032 19.0179 878.721 22.1331 878.721 28.0355V33.7739Z" fill="white"/>
<path fill-rule="evenodd" clip-rule="evenodd" d="M1228.19 48H1248.11V17.4603H1259.92V1.55664H1216.39V17.4603H1228.19V48Z" fill="white"/>
<path fill-rule="evenodd" clip-rule="evenodd" d="M1137.55 48H1156.03L1164.25 19.6738H1164.91L1173.26 48H1192.62L1177.53 1.55664H1152.85L1137.55 48Z" fill="white"/>
<path fill-rule="evenodd" clip-rule="evenodd" d="M1035.13 0C1010.87 0 994.884 16.3136 994.884 47.3832C994.884 47.5895 994.884 47.7951 994.886 48H1015.95V40.5791C1015.95 25.987 1023.17 17.7072 1035.13 17.7072C1047.1 17.7072 1054.32 25.987 1054.32 40.5791V48H1075.38C1075.39 47.7951 1075.39 47.5895 1075.39 47.3832C1075.39 16.2316 1059.4 0 1035.13 0Z" fill="white"/>
</g>
<defs>
<clipPath id="clip0_967_6260">
<rect width="1260" height="48" fill="white"/>
</clipPath>
</defs>
</svg>
