<svg width="64" height="65" viewBox="0 0 64 65" fill="none" xmlns="http://www.w3.org/2000/svg">
<circle opacity="0.2" cx="32" cy="32.4453" r="31.5" stroke="#00D3A9"/>
<mask id="mask0_570_918" style="mask-type:luminance" maskUnits="userSpaceOnUse" x="18" y="21" width="29" height="22">
<path d="M18.5547 21.1855H46.094V42.5189H18.5547V21.1855Z" fill="white"/>
</mask>
<g mask="url(#mask0_570_918)">
<path d="M41.8677 23.0839C40.0823 22.2643 38.1981 21.6798 36.2622 21.3452C36.2447 21.3419 36.2265 21.3443 36.2103 21.352C36.1942 21.3596 36.1808 21.3722 36.1722 21.3879C35.9301 21.8183 35.6619 22.3801 35.4742 22.8216C33.3574 22.5046 31.2516 22.5046 29.1783 22.8216C28.9905 22.3702 28.7126 21.8183 28.4694 21.3879C28.4604 21.3725 28.447 21.3602 28.4309 21.3526C28.4148 21.345 28.3968 21.3424 28.3793 21.3452C26.4433 21.6791 24.5589 22.2636 22.7738 23.0839C22.7585 23.0904 22.7456 23.1014 22.7369 23.1155C19.1667 28.4494 18.1887 33.6521 18.6685 38.7904C18.6698 38.803 18.6737 38.8152 18.6798 38.8262C18.686 38.8373 18.6943 38.847 18.7043 38.8548C21.0597 40.5847 23.3415 41.6349 25.5808 42.331C25.5983 42.3362 25.6169 42.3359 25.6341 42.3302C25.6514 42.3246 25.6665 42.3138 25.6775 42.2993C26.2072 41.5758 26.6794 40.8131 27.0844 40.011C27.0899 40.0001 27.0931 39.988 27.0937 39.9757C27.0943 39.9634 27.0922 39.9511 27.0877 39.9396C27.0832 39.9282 27.0763 39.9178 27.0675 39.9092C27.0587 39.9006 27.0481 39.894 27.0366 39.8897C26.2875 39.6055 25.5744 39.2592 24.8884 38.8658C24.8759 38.8585 24.8654 38.8481 24.8578 38.8358C24.8503 38.8234 24.8458 38.8094 24.845 38.7949C24.8441 38.7804 24.8469 38.7659 24.8529 38.7528C24.859 38.7396 24.8682 38.7281 24.8797 38.7193C25.0244 38.6111 25.1666 38.4997 25.3063 38.385C25.3185 38.3749 25.3333 38.3684 25.349 38.3662C25.3647 38.3641 25.3807 38.3664 25.3952 38.3729C29.9023 40.4306 34.7816 40.4306 39.2354 38.3729C39.2499 38.366 39.2661 38.3634 39.2821 38.3653C39.298 38.3673 39.3131 38.3737 39.3256 38.3839C39.4653 38.4992 39.608 38.6111 39.7533 38.7193C39.7649 38.728 39.7741 38.7394 39.7803 38.7526C39.7864 38.7657 39.7892 38.7801 39.7885 38.7946C39.7877 38.8091 39.7834 38.8231 39.776 38.8355C39.7685 38.848 39.7581 38.8584 39.7457 38.8658C39.0593 39.2666 38.3403 39.6088 37.5964 39.8886C37.5848 39.893 37.5743 39.8999 37.5656 39.9086C37.5569 39.9173 37.5501 39.9278 37.5457 39.9394C37.5413 39.951 37.5393 39.9633 37.54 39.9757C37.5407 39.988 37.544 40.0001 37.5497 40.011C37.9617 40.8068 38.4315 41.5712 38.9553 42.2982C38.966 42.3131 38.981 42.3242 38.9984 42.3301C39.0157 42.336 39.0345 42.3363 39.052 42.331C41.3022 41.6349 43.584 40.5847 45.9396 38.8548C45.9497 38.8474 45.9581 38.8379 45.9642 38.827C45.9704 38.816 45.9742 38.804 45.9754 38.7915C46.5496 32.8511 45.0136 27.6909 41.9035 23.1166C41.8959 23.1018 41.8832 23.0901 41.8677 23.0839ZM27.7574 35.6618C26.4004 35.6618 25.2823 34.416 25.2823 32.8861C25.2823 31.3561 26.3788 30.1104 27.7574 30.1104C29.1468 30.1104 30.254 31.3671 30.2322 32.8861C30.2322 34.416 29.1359 35.6618 27.7574 35.6618ZM36.9082 35.6618C35.5512 35.6618 34.4332 34.416 34.4332 32.8861C34.4332 31.3561 35.5296 30.1104 36.9082 30.1104C38.2975 30.1104 39.4048 31.3671 39.3831 32.8861C39.3831 34.416 38.2975 35.6618 36.9082 35.6618Z" fill="#00D3A9"/>
</g>
</svg>
