<svg width="64" height="65" viewBox="0 0 64 65" fill="none" xmlns="http://www.w3.org/2000/svg">
<circle opacity="0.2" cx="32" cy="32.4453" r="31.5" stroke="#00D3A9"/>
<path d="M28.8922 37.1102L36.9655 32.4436L28.8922 27.7769V37.1102ZM46.8744 24.9302C47.0766 25.6614 47.2166 26.6414 47.31 27.8858C47.4189 29.1302 47.4655 30.2036 47.4655 31.1369L47.5589 32.4436C47.5589 35.8502 47.31 38.3547 46.8744 39.9569C46.4855 41.3569 45.5833 42.2591 44.1833 42.648C43.4522 42.8502 42.1144 42.9902 40.0611 43.0836C38.0389 43.1925 36.1878 43.2391 34.4766 43.2391L32.0033 43.3325C25.4855 43.3325 21.4255 43.0836 19.8233 42.648C18.4233 42.2591 17.5211 41.3569 17.1322 39.9569C16.93 39.2258 16.79 38.2458 16.6966 37.0014C16.5878 35.7569 16.5411 34.6836 16.5411 33.7502L16.4478 32.4436C16.4478 29.0369 16.6966 26.5325 17.1322 24.9302C17.5211 23.5302 18.4233 22.628 19.8233 22.2391C20.5544 22.0369 21.8922 21.8969 23.9455 21.8036C25.9678 21.6947 27.8189 21.648 29.53 21.648L32.0033 21.5547C38.5211 21.5547 42.5811 21.8036 44.1833 22.2391C45.5833 22.628 46.4855 23.5302 46.8744 24.9302Z" fill="#00D3A9"/>
</svg>
