<svg width="65" height="65" viewBox="0 0 65 65" fill="none" xmlns="http://www.w3.org/2000/svg">
<path d="M63.0175 32.2539C63.0175 49.0992 49.3674 62.7539 32.5303 62.7539C15.6932 62.7539 2.04297 49.0992 2.04297 32.2539C2.04297 15.4087 15.6932 1.75391 32.5303 1.75391C49.3674 1.75391 63.0175 15.4087 63.0175 32.2539Z" stroke="white" stroke-width="3"/>
<path d="M46.8893 33.6739C47.475 33.0882 47.475 32.1384 46.8893 31.5526L37.3433 22.0067C36.7575 21.4209 35.8078 21.4209 35.222 22.0067C34.6362 22.5925 34.6362 23.5422 35.222 24.128L43.7073 32.6133L35.222 41.0986C34.6362 41.6843 34.6362 42.6341 35.222 43.2199C35.8078 43.8057 36.7575 43.8057 37.3433 43.2199L46.8893 33.6739ZM19.2324 34.1133H45.8286V31.1133H19.2324V34.1133Z" fill="white"/>
</svg>
